<svg id="Layer_1" data-name="Layer 1" xmlns="http://www.w3.org/2000/svg" viewBox="0 0 295.21 183.81"><defs><style>.cls-1{fill:#933982;}</style></defs><rect class="cls-1" x="-26.71" y="73.49" width="211.42" height="12.02" rx="6.01" transform="translate(-35.38 76.65) rotate(-45)"/><path class="cls-1" d="M295.27,154.09l.47-.48a6,6,0,0,0,0-8.49L154.57,4.23a6,6,0,0,0-8.48,0h0a6,6,0,0,0,0,8.47L286.77,154.11A6,6,0,0,0,295.27,154.09Z" transform="translate(-2.3 -2.5)"/><rect class="cls-1" x="-26.9" y="103.61" width="211.42" height="12.02" rx="6.01" transform="translate(-56.73 85.34) rotate(-45)"/><path class="cls-1" d="M295.16,184.53l.48-.47a6,6,0,0,0,0-8.49L154.46,34.68a6,6,0,0,0-8.48,0h0a6,6,0,0,0,0,8.48L286.67,184.55A6,6,0,0,0,295.16,184.53Z" transform="translate(-2.3 -2.5)"/></svg>