<?xml version="1.0" encoding="utf-8"?>
<!-- Generator: Adobe Illustrator 24.1.2, SVG Export Plug-In . SVG Version: 6.00 Build 0)  -->
<svg version="1.1" id="b52d7e2d-d80f-4111-b6ed-d15502ee1edd"
	 xmlns="http://www.w3.org/2000/svg" xmlns:xlink="http://www.w3.org/1999/xlink" x="0px" y="0px" viewBox="0 0 711.2 669.7"
	 style="enable-background:new 0 0 711.2 669.7;" xml:space="preserve">
<style type="text/css">
	.st0{fill:#E6E6E6;}
	.st1{opacity:0.1;enable-background:new    ;}
	.st2{fill:#404040;}
	.st3{fill:#F2F2F2;}
	.st4{fill:#303030;}
	.st5{fill:#FFB8B8;}
	.st6{fill:#4392F1;}
</style>
<polygon class="st0" points="516.3,380 516.3,565 547.3,615.4 549.6,619.3 671.7,619.3 674.2,380 "/>
<polygon class="st1" points="516.3,380 516.3,565 547.3,615.4 549.2,380 "/>
<polygon class="st0" points="221.6,375.1 221.6,560.1 190.6,610.5 188.3,614.3 66.2,614.3 63.7,375.1 "/>
<polygon class="st1" points="221.6,375.1 221.6,560.1 190.6,610.5 188.7,375.1 "/>
<polygon class="st0" points="711.2,371.4 711.2,382.5 47.7,382.5 47.7,366.5 109.3,334.4 656.9,334.4 "/>
<polygon class="st1" points="711.2,371.4 711.2,382.5 47.7,382.5 47.7,366.5 "/>
<polygon class="st2" points="142.6,426.9 113,426.9 100.7,418.3 156.2,418.3 "/>
<polygon class="st2" points="142.6,462.6 113,462.6 100.7,454 156.2,454 "/>
<polygon class="st2" points="142.6,513.2 113,513.2 100.7,504.6 156.2,504.6 "/>
<polygon class="st2" points="142.6,563.8 113,563.8 100.7,555.1 156.2,555.1 "/>
<polygon class="st2" points="595.3,431.8 624.9,431.8 637.2,423.2 581.7,423.2 "/>
<polygon class="st2" points="595.3,467.6 624.9,467.6 637.2,458.9 581.7,458.9 "/>
<polygon class="st2" points="595.3,518.1 624.9,518.1 637.2,509.5 581.7,509.5 "/>
<polygon class="st2" points="595.3,568.7 624.9,568.7 637.2,560.1 581.7,560.1 "/>
<path class="st2" d="M615.4,120.5H366.2c-5.2,0-9.4,4.2-9.4,9.4c0,0,0,0,0,0v167.9c0,5.2,4.2,9.4,9.4,9.4c0,0,0,0,0,0h94.6
	l-3.5,22.6c0,0-20.3,10.8-6,11.1s81.3,0,81.3,0s13,0-7.6-11.4l-3.3-22.3h93.7c5.2,0,9.4-4.2,9.4-9.4c0,0,0,0,0,0V129.9
	C624.8,124.7,620.6,120.5,615.4,120.5C615.4,120.5,615.4,120.5,615.4,120.5z"/>
<rect x="365.8" y="130.4" class="st3" width="250" height="139.9"/>
<circle class="st3" cx="490.8" cy="126" r="1.6"/>
<circle class="st3" cx="490.8" cy="294.3" r="6"/>
<polygon class="st2" points="481.5,358 481.5,361.1 311.2,361.1 311.2,358.6 311.4,358 315.6,346.6 478,346.6 "/>
<path class="st2" d="M547,354.9c-0.3,1.3-1.5,2.7-4.1,4c-9.5,4.7-28.8-1.3-28.8-1.3s-14.9-2.5-14.9-9.2c0.4-0.3,0.9-0.5,1.3-0.8
	c4-2.1,17.2-7.3,40.7,0.2c1.7,0.5,3.3,1.6,4.5,2.9C546.7,351.9,547.2,353.4,547,354.9z"/>
<path class="st1" d="M547,354.9c-11.6,4.5-22,4.8-32.6-2.6c-4-3-8.9-4.6-13.9-4.6c4-2.1,17.2-7.3,40.7,0.2c1.7,0.5,3.3,1.6,4.5,2.9
	C546.7,351.9,547.2,353.4,547,354.9z"/>
<ellipse class="st3" cx="532.4" cy="351" rx="4.1" ry="1.3"/>
<polygon class="st1" points="481.5,358 481.5,361.1 311.2,361.1 311.2,358.6 311.4,358 "/>
<path class="st4" d="M94.7,0c-1.7-0.1-3.5,0.2-5,1.1c-1.5,1-2.4,2.8-3.4,4.4c-3.6,6.4-8.5,11.9-14.4,16.3c-4.3,3.1-9.7,7.1-9,12.9
	c0.4,1.9,1.1,3.7,2.1,5.4c4,8,14.8,14.2,13.7,23.3c3.9-6.6-1.3-9.8,2.6-16.4c1.9-3.1,5.1-6.7,8-4.7c0.9,0.7,1.6,1.8,2.6,2.4
	c2.4,1.4,4.9-1.3,6.9-3.1c7.2-6.4,17.4-4.8,26.3-2.7c4.2,0.9,8.8,2.2,11.3,6.2c3.3,5.3-3.1,11-4.7,17c-0.5,1.7,0.6,3.5,2.3,4
	c0.4,0.1,0.8,0.1,1.2,0.1c2.7-0.3,5.9-0.5,6-1.7c3.4,0.1,7.5-0.3,8.9-3.8c0.4-1.4,0.7-2.8,0.7-4.3c0.5-5.9,3-11.3,4.7-16.9
	s2.4-12.2-0.4-17.2c-1-1.7-2.2-3.2-3.7-4.5C135.5,2.5,114.7,0,94.7,0z"/>
<path class="st5" d="M82.1,74.9c0,0,3.5,28.8-9.2,31.1s11.5,41.4,11.5,41.4l57.6,6.9l-13.8-46c0,0-9.2-3.5-3.5-26.5
	S82.1,74.9,82.1,74.9z"/>
<polygon class="st5" points="47,569.3 51.6,632.6 75.8,632.6 68.9,569.3 "/>
<polygon class="st5" points="224.3,449.6 227.8,502.6 254.2,491 243.9,447.3 "/>
<path class="st4" d="M29.8,327.6c0,0,1.2,66.8,8.1,88.6s5.8,23,4.6,26.5s-2.3,1.2-2.3,6.9s-2.3,96.7,0,104.8s-6.9,21.9,0,23
	s39.1,0,40.3-6.9c1.2-6.9-9.2-9.2-4.6-13.8c4.6-4.6,11.5-99,11.5-99l16.1-65.6l29.9-34.5h63.3l19.6,76c0,0-8.1,21.9-2.3,21.9
	s40.3,6.9,40.3-18.4s-11.5-100.1-13.8-102.5s1.2-10.4-2.3-13.8s-43.7-27.6-58.7-32.2s-36-10.1-36-10.1L29.8,327.6z"/>
<path class="st4" d="M254.2,481.8c0,0-17.3-5.8-25.3,11.5s-4.6,21.9-4.6,21.9s26.5,9.2,31.1,4.6c2-2,8.4-2.7,14.9-2.8
	c10-0.2,12.6-14.3,3.2-17.6c-0.3-0.1-0.6-0.2-0.9-0.3C263.4,496.8,254.2,481.8,254.2,481.8z"/>
<circle class="st5" cx="108" cy="59.4" r="34.5"/>
<path class="st6" d="M63.1,120.4c0,0,56.4,11.5,70.2-6.9s19.6,51.8,19.6,51.8l6.9,73.7l-10.4,40.3c0,0-54.1,43.7-71.4,47.2
	s-43.7,5.8-43.7,5.8s8.1-127.8,8.1-130.1S63.1,120.4,63.1,120.4z"/>
<path class="st2" d="M80.3,98.8c0,0-12.5-7.2-16-0.3s-35.7,24.2-39.1,24.2s6.9,95.5,2.3,107.1S1,325.3,13.6,332.2s3.5-6.9,16.1,10.4
	s74.8,17.3,78.3,10.4s-27.6-58.7-21.9-107.1s15-115.1,6.9-124.3S80.3,98.8,80.3,98.8z"/>
<path class="st2" d="M121.9,106.6l1.6-5.5c0,0,47.9,15.9,50.2,26.2s1.2,82.9-6.9,88.6s-19.6,15-11.5,28.8s17.3,28.8,24.2,29.9
	s19.6,9.2,16.1,17.3s-44.9-6.9-44.9-6.9s-27.6-20.7-26.5-53S121.9,106.6,121.9,106.6z"/>
<path class="st5" d="M162.1,242.4l-27.6,51.8c0,0-40.3,41.4-17.3,46s35.7-38,35.7-38l29.9-42.6L162.1,242.4z"/>
<path class="st4" d="M96.3,9c-1.4-0.1-2.8,0.2-4,0.8c-1.1,0.8-2.1,1.9-2.7,3.1c-3.1,4.6-7.1,8.5-11.8,11.5c-3.5,2.2-7.9,5-7.3,9.1
	c0.3,1.4,0.9,2.7,1.7,3.8c3.2,5.7,4.5,12.3,3.7,18.8l9.6-14c1.5-2.2,4.2-4.7,6.5-3.3c0.8,0.5,1.3,1.3,2.1,1.7c1.9,1,4-0.9,5.6-2.2
	c5.8-4.6,14.2-3.4,21.4-1.9c3.4,0.7,7.2,1.5,9.2,4.4c3.4,4.7-0.1,11.6,1.8,17c1.1-0.8,1.9-2,2.1-3.3c2.7,0.1,6.1-0.2,7.3-2.7
	c0.4-1,0.5-2,0.6-3c0.4-4.2,2.5-8,3.8-11.9s1.9-8.6-0.3-12.1c-0.8-1.2-1.8-2.3-3-3.1C129.6,10.8,112.6,9,96.3,9z"/>
<path class="st2" d="M162.1,122.7l10.7,2.8c0,0,25,63.9,19.2,107.7s-9.2,34.5-9.2,34.5s-9.2-20.7-29.9-16.1L162.1,122.7z"/>
<path class="st4" d="M48.6,624.3c-2.8,3.8-2.2,9.2-4.7,13.2c-2.1,3.5-6.1,5.3-8.8,8.3c-0.9,1-1.6,2.1-2.3,3.3
	c-2.5,4.1-4.5,9.5-2,13.6c2,3.4,6.1,4.7,9.9,5.6c4.8,1.1,9.7,2,14.6,1.2s9.5-3.8,11.3-8.4c0.3-1.2,0.7-2.3,1.2-3.4
	c2.6-5.2,10.8-5.2,13.5-10.3c1.9-3.6,0.2-7.9-1.6-11.6l-5.3-11.2c-1.7-3.7-8.8-1.6-12.5-2.5C57.1,620.8,52.1,619.5,48.6,624.3z"/>
<path class="st5" d="M10.2,265.4l48.3,74.8c0,0,29.9,38,39.1,20.7s-32.2-46-32.2-46l-31.1-57.6L10.2,265.4z"/>
<path class="st2" d="M34.4,125l-9.2-2.3c0,0-18.4,5.8-23,29.9S1,273.5,6.7,274.6s28.4-16.8,32.1-13s-7.9-15.8-4.4-26.1
	S34.4,125,34.4,125z"/>
<g id="f3c2397c-d780-4cc6-97d8-1503d8277a2c">
	<rect id="ad41612f-86f7-46b2-a964-3a5da7bcf3cf" x="437.4" y="176.4" class="st6" width="29.8" height="7.2"/>
	<rect id="b9a0b375-cc2a-4c59-8850-661af54e4f62" x="559.7" y="176.4" class="st6" width="10.5" height="7.2"/>
	<rect id="e174c2ab-9bc5-41ec-b37c-b06fbf8a9878" x="580.7" y="176.4" class="st6" width="10.5" height="7.2"/>
	<rect id="ba2479ac-4c7d-43b4-a028-73b1e20e4002" x="477.6" y="176.4" class="st6" width="71.1" height="7.2"/>
	<rect id="ac60ef86-00f2-480b-8171-28b6fdfc1958" x="399.9" y="222.6" class="st6" width="29.8" height="7.2"/>
	<rect id="b3d8298d-cd65-487a-8b19-4cee946356e7" x="522.3" y="222.6" class="st6" width="10.5" height="7.2"/>
	<rect id="ed27f15f-f0c4-4569-8330-a6688f8e356c" x="543.2" y="222.6" class="st6" width="10.5" height="7.2"/>
	<rect id="f685c005-adaf-4d60-acda-005b037d82a6" x="440.2" y="222.6" class="st6" width="71.1" height="7.2"/>
	<rect id="eca7c7fc-83f8-48ca-a588-6606db47af3f" x="522.8" y="192.3" class="st6" width="29.8" height="7.2"/>
	<rect id="a71b5b2f-f8b9-481d-a301-5e3357e5fe42" x="563" y="192.3" class="st6" width="29.8" height="7.2"/>
	<rect id="abb3a25a-f854-41fc-8391-e6ad9fbe2417" x="399.9" y="192.3" class="st6" width="10.5" height="7.2"/>
	<rect id="add2b425-b775-4eb5-9c25-8c4c14f957c9" x="420.9" y="192.3" class="st6" width="10.5" height="7.2"/>
	<rect id="b7159612-3b84-4b0b-a885-612eaab04c06" x="441.8" y="192.3" class="st6" width="71.1" height="7.2"/>
	<rect id="edfc7301-4de5-47dc-80e2-1ae2da982d6d" x="461.1" y="207.8" class="st6" width="29.8" height="7.2"/>
	<rect id="e1009f91-6275-4375-80fa-0d778e331fdc" x="420.9" y="207.8" class="st6" width="29.8" height="7.2"/>
	<rect id="a060fb9f-1f1a-4862-9a69-16dd49199e18" x="399.9" y="207.8" class="st6" width="10.5" height="7.2"/>
	<rect id="b6754d5f-104f-449c-b9a9-cf9ac82bf5fe" x="582.3" y="207.8" class="st6" width="10.5" height="7.2"/>
	<rect id="e6ed1ccd-2cfd-450f-a339-07df3a1ee6bb" x="500.8" y="207.8" class="st6" width="71.1" height="7.2"/>
</g>
</svg>
