<svg id="Layer_1" data-name="Layer 1" xmlns="http://www.w3.org/2000/svg" viewBox="0 0 295.3 236.8"><defs><style>.cls-1{fill:#933982;}</style></defs><rect class="cls-1" x="-26.71" y="73.49" width="211.42" height="12.02" rx="6.01" transform="translate(-35.29 76.65) rotate(-45)"/><path class="cls-1" d="M295.27,154.09l.47-.48a6,6,0,0,0,0-8.49L154.57,4.23a6,6,0,0,0-8.48,0h0a6,6,0,0,0,0,8.47L286.77,154.11A6,6,0,0,0,295.27,154.09Z" transform="translate(-2.21 -2.5)"/><rect class="cls-1" x="-26.9" y="103.61" width="211.42" height="12.02" rx="6.01" transform="translate(-56.64 85.34) rotate(-45)"/><path class="cls-1" d="M295.16,184.53l.48-.47a6,6,0,0,0,0-8.49L154.46,34.68a6,6,0,0,0-8.48,0h0a6,6,0,0,0,0,8.48L286.67,184.55A6,6,0,0,0,295.16,184.53Z" transform="translate(-2.21 -2.5)"/><rect class="cls-1" x="115.1" y="156.77" width="211.42" height="12.02" rx="6.01" transform="translate(-52.64 201.32) rotate(-45)"/><path class="cls-1" d="M153.16,236.69l.48-.47a6,6,0,0,0,0-8.49L12.46,86.84a6,6,0,0,0-8.48,0H4a6,6,0,0,0,0,8.48L144.67,236.71A6,6,0,0,0,153.16,236.69Z" transform="translate(-2.21 -2.5)"/><rect class="cls-1" x="115.1" y="125.77" width="211.42" height="12.02" rx="6.01" transform="translate(-30.72 192.24) rotate(-45)"/><path class="cls-1" d="M153.16,204.69l.48-.47a6,6,0,0,0,0-8.49L12.46,54.84a6,6,0,0,0-8.48,0H4a6,6,0,0,0,0,8.48L144.67,204.71A6,6,0,0,0,153.16,204.69Z" transform="translate(-2.21 -2.5)"/></svg>