<?xml version="1.0" encoding="utf-8"?>
<!-- Generator: Adobe Illustrator 24.1.2, SVG Export Plug-In . SVG Version: 6.00 Build 0)  -->
<svg version="1.1" id="Layer_1" xmlns="http://www.w3.org/2000/svg" xmlns:xlink="http://www.w3.org/1999/xlink" x="0px" y="0px"
	 viewBox="0 0 480 480" style="enable-background:new 0 0 480 480;" xml:space="preserve">
<style type="text/css">
	.st0{fill:#FFFFFF;}
</style>
<path class="st0" d="M240,0C107.5,0,0,107.5,0,240s107.5,240,240,240s240-107.5,240-240C479.9,107.5,372.5,0.1,240,0z M240,464
	C116.3,464,16,363.7,16,240S116.3,16,240,16s224,100.3,224,224C463.9,363.7,363.7,463.9,240,464z"/>
<path class="st0" d="M352,144H128c-4.4,0-8,3.6-8,8v176c0,4.4,3.6,8,8,8h224c4.4,0,8-3.6,8-8V152C360,147.6,356.4,144,352,144z
	 M330.4,160L240,237.5L149.6,160H330.4z M136,320V169.4l98.8,84.7c3,2.6,7.4,2.6,10.4,0l98.8-84.7V320H136z"/>
</svg>
