<?xml version="1.0" encoding="utf-8"?>
<!-- Generator: Adobe Illustrator 24.1.2, SVG Export Plug-In . SVG Version: 6.00 Build 0)  -->
<svg version="1.1" id="ffb37006-6823-47d5-b4b5-21f07e9e71a0"
	 xmlns="http://www.w3.org/2000/svg" xmlns:xlink="http://www.w3.org/1999/xlink" x="0px" y="0px" viewBox="0 0 1038.5 784.4"
	 style="enable-background:new 0 0 1038.5 784.4;" xml:space="preserve">
<style type="text/css">
	.st0{fill:#353535;}
	.st1{fill:#449900;}
	.st2{fill:#F2F2F2;}
	.st3{fill:#FFB8B8;}
	.st4{fill:#303030;}
	.st5{opacity:0.1;enable-background:new    ;}
	.st6{fill:#404040;}
</style>
<path class="st0" d="M267.5,692c0,0,5-21,40-14s40,14,40,14H267.5z"/>
<path class="st0" d="M95,664.5c0,0,5-21,40-14s40,14,40,14H95z"/>
<path class="st0" d="M387.5,692c0,0-28-17-40,0H387.5z"/>
<path class="st0" d="M257,644c0,0-28-17-40,0H257z"/>
<path class="st0" d="M99.9,628.4c8.3,15.5,26,22.1,26,22.1s4.2-18.4-4.2-33.9s-26-22.1-26-22.1S91.6,612.9,99.9,628.4z"/>
<path class="st1" d="M105.6,623.3c15.1,9.1,20.8,27,20.8,27s-18.6,3.3-33.7-5.8s-20.8-27-20.8-27S90.6,614.2,105.6,623.3z"/>
<path class="st0" d="M932,679.5c0,0,5-21,40-14c35,7,40,14,40,14H932z"/>
<path class="st0" d="M852,692c-24.3-3.8-47.7-7-70.1-9.7l8.6-17.3c-3-1-16,9-16,9l11-50c-15,2-22,53-22,53l-17-17l8.4,19.2
	c-68.7-7.2-127.9-9.5-177.8-9l7.4-14.8c-3-1-16,9-16,9l11-50c-15,2-22,53-22,53l-17-17l8.9,20.4c-34.1,1-68.2,3.7-102,8.2
	c7.4-23,33.2-45.1,33.2-45.1c-19.8,6.2-30.1,16.2-35.5,25.5c-1.1-47.2,6.2-94.3,21.5-139c0,0-40,90-34,150l0.8,10.7
	C398.4,686.6,381,692,381,692H852z"/>
<path class="st0" d="M591,737.5c0,0,184-27,298,0"/>
<path class="st0" d="M320,774.5c0,0,184-27,298,0"/>
<path class="st0" d="M661,784.4c0,0,109-27.6,176.5,0"/>
<path class="st0" d="M965.4,673.4l-1.8-0.9c23.1-44.6,10.7-102.6-3.7-143.3c-9.8-27.4-22.3-53.7-37.3-78.7l1.7-1.1
	c15.1,25.1,27.6,51.5,37.5,79.1C976.4,569.6,988.8,628.2,965.4,673.4z"/>
<rect x="940.9" y="484.5" transform="matrix(0.1798 -0.9837 0.9837 0.1798 323.7955 1359.2931)" class="st0" width="72.2" height="2"/>
<rect x="928" y="497.8" transform="matrix(0.7321 -0.6812 0.6812 0.7321 -123.7161 779.4009)" class="st0" width="2" height="98.4"/>
<rect x="971.5" y="612.5" transform="matrix(0.5858 -0.8104 0.8104 0.5858 -82.8235 1064.8877)" class="st0" width="58" height="2"/>
<circle class="st1" cx="988.5" cy="421" r="10"/>
<circle class="st0" cx="879.5" cy="498" r="10"/>
<circle class="st0" cx="923.5" cy="508" r="10"/>
<circle class="st1" cx="903.5" cy="547" r="10"/>
<circle class="st0" cx="1028.5" cy="572" r="10"/>
<circle class="st1" cx="995.5" cy="583" r="10"/>
<circle class="st0" cx="1018.5" cy="615" r="10"/>
<circle class="st0" cx="913.5" cy="433" r="10"/>
<path class="st2" d="M328.3,380c0,123.6-73.5,166.8-164.1,166.8S0,503.6,0,380S164.1,99.1,164.1,99.1S328.3,256.4,328.3,380z"/>
<polygon class="st0" points="158.2,527.8 159.8,424.4 229.8,296.4 160.1,408.2 160.9,361.6 209.1,269 161.1,349.3 161.1,349.3 
	162.4,265.7 214,192 162.6,252.5 163.5,99.1 158.1,302.2 158.6,293.8 106.1,213.5 157.7,309.9 152.8,403.3 152.7,400.8 92.2,316.3 
	152.5,409.6 151.9,421.3 151.8,421.5 151.8,422.4 139.4,659.5 156,659.5 158,537 218.2,444 "/>
<path class="st2" d="M869.6,343.1c0,151-89.8,203.7-200.5,203.7s-200.5-52.7-200.5-203.7S669.1,0,669.1,0S869.6,192.1,869.6,343.1z"
	/>
<polygon class="st0" points="661.8,523.8 663.9,397.4 749.3,241 664.2,377.6 665.1,320.7 724,207.6 665.4,305.7 665.4,305.7 
	667,203.5 730.1,113.4 667.3,187.4 668.3,0 661.8,248.1 662.3,237.9 598.2,139.7 661.3,257.5 655.3,371.7 655.2,368.6 581.2,265.3 
	654.9,379.3 654.2,393.6 654.1,393.8 654.1,395 639,684.6 659.2,684.6 661.6,535 735.2,421.3 "/>
<path class="st3" d="M507.2,560.6l9.1,28.3c0,0-8.3,26.5-4.4,56.1s1.7,30.5,1.7,30.5s-39.1-2.3-35.2,9.5s42.2,4.9,42.2,4.9
	s7.3-2,10.8-22.9s12.2-61.1,12.2-61.1l-8.2-38L507.2,560.6z"/>
<path class="st1" d="M510.2,502.7c0,0-16.5,6.1-16.5,22.6c0,16.5,6.1,39.2,10,40.5s30,19.1,34.8,6.5S510.2,502.7,510.2,502.7z"/>
<polygon class="st3" points="648.6,698.5 683.4,697.2 709.9,693.3 702.1,719.4 637.7,721.2 "/>
<path class="st4" d="M698.6,702c0,0-0.4-9.6-4.4-9.1s-1.3-3.5,2.2-4.4s13.5-5.2,13.5-5.2l39.6,2.6c0,0,25.7,22.6,15.2,34.8
	s-37.4,1.3-37.4,1.3l-29.2,0.4C698.2,722.5,688.6,706.8,698.6,702z"/>
<polygon class="st3" points="714.3,668.5 726.9,727.7 753,722.5 738.2,648.5 722.5,640.2 "/>
<path class="st4" d="M564.2,661.1c0,0-73.1,33.1-42.2,66.6c0,0,0,15.7,32.6,12.6s95.7-8.7,98.8-7s12.6-34.4,4.4-36.1
	s-18.3-3.9-18.3-3.9s8.7-1.3,8.7-8.7c0,0,24.8-1.7,32.2-17.4s14.4-27.4,14.4-27.4l17,43.5c0,0,19.6-36.1,34.4-20
	c0,0-16.5-104-29.2-113.6s-21.3-12.6-33.1-3.9s-22.6,30.9-22.6,30.9L564.2,661.1z"/>
<path class="st4" d="M738.6,709.9c-3,2.3-5.9,4.8-8.7,7.4c-3.5,3.5-8.3,1.7-8.7,0s-8.3,1.3-9.1,13.9s-6.1,23.9,7.8,27.8
	s13.5,15.2,13.5,15.2c11,5.3,23.7,6.1,35.2,2.2c19.6-6.5,12.6-13.5,12.6-13.5l-26.1-43.1C755.2,719.9,748.2,706.8,738.6,709.9z"/>
<path class="st3" d="M666.4,494c0,0,41.8,14.4,46.1,17.4c4.4,3,23.9,17.4,14.4,24.8s-17.4,12.2-36.1,6.5s-39.6-23.1-39.6-23.1
	L666.4,494z"/>
<path class="st1" d="M624.6,474.9c0,0,16.5-3,28.3,3.5s21.8,19.6,21.8,19.6S663.8,521,656,524.5s-22.2-13.9-22.2-13.9L624.6,474.9z"
	/>
<path class="st3" d="M548.5,462.3c0,0,0.4,17-1.3,18.7s20.9,53.1,45.7,30.5c24.8-22.6,5.7-31.8,5.7-31.8s-9.1-17-8.7-18.7
	s-40.5,0-40.5,0L548.5,462.3z"/>
<path class="st5" d="M548.5,462.3c0,0,0.4,17-1.3,18.7s20.9,53.1,45.7,30.5c24.8-22.6,5.7-31.8,5.7-31.8s-9.1-17-8.7-18.7
	s-40.5,0-40.5,0L548.5,462.3z"/>
<path class="st1" d="M555.5,494.9c0,0,16.5,11.3,23.5,8.7s15.7-13.9,16.5-14.8s45.3,88.3,45.3,88.3s-6.5,32.6-23.9,42.2
	s-17.2,17.2-19.4,23.7s-30.2-20.7-30.2-20.7l-17.8-75.7v-46.1L555.5,494.9z"/>
<path class="st6" d="M548.3,474.7c0,0-5.4-1.1-11.1,3.7S505,501,506.3,502.7s13.1,26.5,15.7,36.5s6.5,11.3,6.5,11.3
	s9.1,6.5,7.8,11.3s-7,70.1,0.9,84.4s6.5,27,4.4,30.5s20.9-10,20.9-10s34.4-27.8,37-36.1c1.7-5.7,2.9-11.5,3.5-17.4
	c0,0-22.2-87.9-29.2-92.7S548.3,474.7,548.3,474.7z"/>
<path class="st6" d="M596.1,475c0,0,10.7-6.7,12.9-4.9s22.6,1.7,23.1,3.5s1.3,43.5,16.1,54.4s5.2,32.6,5.2,32.6l10.9,17.4
	c0,0-59.2,57-55.3,37.4c0.2-1.1,0-1.3,0-1.3s-23.1-98.8-20-104C592,504.9,597.5,481.2,596.1,475z"/>
<path class="st3" d="M687.3,514.9l-59.2,20.4c0,0-58.7,13.9-49.6,30s47.9-11.3,47.9-11.3l78.8-8.8
	C705.2,545.3,736.5,518.8,687.3,514.9z"/>
<circle class="st3" cx="572" cy="446.2" r="32.2"/>
<path class="st4" d="M546.4,414.2l-6-2.2c0,0,12.5-12.5,29.8-11.4l-4.9-4.9c0,0,11.9-4.3,22.7,7c5.7,6,12.3,13,16.4,20.9h6.4
	l-2.7,5.3l9.3,5.3l-9.6-1c0.9,4.6,0.6,9.4-0.9,13.8l-2.2,6c0,0-8.7-17.3-8.7-19.5v5.4c0,0-6-4.9-6-8.1l-3.2,3.8l-1.6-6l-20,6
	l3.2-4.9l-12.5,1.6l4.9-6c0,0-14.1,7-14.6,13c-0.5,6-7.6,13.5-7.6,13.5l-3.2-5.4C535.5,446.7,530.7,422.3,546.4,414.2z"/>
</svg>
