<?xml version="1.0" encoding="utf-8"?>
<!-- Generator: Adobe Illustrator 24.1.2, SVG Export Plug-In . SVG Version: 6.00 Build 0)  -->
<svg version="1.1" id="e1d6a9e2-5d0a-4358-9625-bb79dd06fec3"
	 xmlns="http://www.w3.org/2000/svg" xmlns:xlink="http://www.w3.org/1999/xlink" x="0px" y="0px" viewBox="0 0 996 674"
	 style="enable-background:new 0 0 996 674;" xml:space="preserve">
<style type="text/css">
	.st0{fill:#E5E5E5;}
	.st1{fill:#202020;}
	.st2{fill:#E15554;}
	.st3{fill:#FFB9B9;}
	.st4{fill:#BBBBBB;}
	.st5{opacity:0.1;enable-background:new    ;}
	.st6{fill:#303030;}
	.st7{fill:#AAAAAA;stroke:#000000;stroke-width:2;stroke-miterlimit:10;}
	.st8{fill:none;stroke:#000000;stroke-width:2;stroke-miterlimit:10;}
	.st9{fill:none;stroke:#000000;stroke-width:0.75;stroke-miterlimit:10;}
</style>
<circle class="st0" cx="138.9" cy="525.4" r="138.9"/>
<path class="st1" d="M307,587.1c-162.1,0-293.5-131.4-293.5-293.5S144.9,0,307,0s293.5,131.4,293.5,293.5
	c0,77.9-30.9,152.5-86,207.6C459.6,556.3,384.9,587.3,307,587.1z M307,2.2C146.4,2.2,15.7,132.9,15.7,293.5S146.4,584.8,307,584.8
	s291.3-130.7,291.3-291.3S467.6,2.2,307,2.2L307,2.2z"/>
<ellipse transform="matrix(0.7071 -0.7071 0.7071 0.7071 97.567 363.3639)" class="st2" cx="487.4" cy="63.9" rx="56" ry="56"/>
<rect x="32.5" y="662.1" class="st1" width="963.5" height="2.2"/>
<path class="st3" d="M884.1,360.8l12.8,35.1c0,0-13.4,40.1,0,41.2s15-38.4,15-38.4l-7.2-42.3L884.1,360.8z"/>
<path class="st4" d="M890.3,246.1l9.5,9.5v45.1c0,0,5.6,8.4,4.5,10.6s-2.2,2.2-1.1,3.9s2.2,2.8,1.1,3.9c-1.1,1.5-1.1,3.5,0,5
	c1.1,1.1,3.3,2.8,1.7,4.5s-3.9,0.6-1.7,6.7s6.1,7.8,5,10s-1.1,7.8-1.1,7.8l-23.9,3.3l-5-62.9L890.3,246.1z"/>
<polygon class="st2" points="909.2,352.5 881.4,353.6 882.5,365.3 907,360.8 "/>
<polygon class="st3" points="832.6,188 829.3,221.4 863.3,226.4 865.8,207.2 868.3,188 "/>
<polygon class="st5" points="832.6,188 829.3,221.4 863.3,226.4 865.8,207.2 868.3,188 "/>
<path class="st3" d="M758.9,346.9l18.9,40.6c0,0,3.3,18.9,8.4,19.5s10-19.5,10-19.5l-6.7-10.6l-7.8-30.1h-22.8L758.9,346.9
	L758.9,346.9z"/>
<path class="st6" d="M798.4,383.6l-15.6,24.5c0,0-15,233.3-12.8,231.6s9.5-2.2,12.2-6.7s20,0,20,0l10-10.6V614
	c0-1.7,20-129.2,20-129.2v32.3c0,0-6.1,118.6,3.9,117.5s30.6-7.8,30.6-7.8s29.5-221.6,20.6-229.9s-12.8-27.3-12.8-27.3L798.4,383.6z
	"/>
<circle class="st3" cx="851.3" cy="172.1" r="26.7"/>
<path class="st4" d="M791.7,226.6l-3.9-2.2c0,0-17.3,11.7-22.8,37.9s-9.5,32.8-9.5,32.8s-5.6,1.1-1.7,5s3.9,3.3,0.6,5.6
	s-5.6-2.2-3.3,2.2s5,3.3,2.8,6.1s-6.1,2.8-3.9,5s-2.2,7.2,0.6,9.5s3.9,2.8,3.9,6.7c0,2.3,0.4,4.5,1.1,6.7h28.9
	c0,0-5.6-10.6-3.9-12.8s2.2-4.5,1.1-5.6s-4.5,1.1-1.1-1.7s4.5-1.1,3.3-4.5s-3.3-1.7-1.1-3.3s3.9-1.1,2.8-2.8s-3.3-1.7-1.1-2.8
	s3.9,0,3.3-2.8s-1.1-1.7,0-2.8s12.8-39,12.8-40.1S791.7,226.6,791.7,226.6z"/>
<polygon class="st2" points="786.2,339.7 751.1,341.9 760,350.2 784.5,350.8 "/>
<path class="st2" d="M796.2,381.4l-7.2,13.4c0,0,21.7,2.8,29.5,5.6s27.8,6.7,27.8,6.7l5-19.5L796.2,381.4z"/>
<polygon class="st2" points="859.6,387.5 865.8,405.9 890.3,400.9 887.5,383.6 "/>
<path class="st4" d="M869.7,207.7c0,0-1.7-1.1-5.6,1.1s-16.7,3.3-22.8-3.3s-10.6-12.2-12.2-11.1s-2.8,13.9-2.8,13.9l-5.6,4.5
	l-32.8,11.7l2.8,75.2l5,17.3c0,0-3.9,13.4,1.1,21.2s-2.8,10.6-2.8,10.6s-1.7,2.2-0.6,7.8s-1.1,26.2-1.1,26.2s47.3,21.2,96.9,2.8
	l-5.6-21.2l-2.8-47.3c0,0,2.8-7.8,2.2-11.1s16.7-50.1,16.7-50.1s-2.8-23.4-17.3-28.4s-16.7-10-16.7-10S872.4,209.9,869.7,207.7z"/>
<path class="st6" d="M824.4,175.5c0,0-2.8-4.2-1.7-8.6c0.6-2.5,0.9-5.2,0.7-7.8c1.2-3.9,2.7-7.7,4.5-11.3c2.2-4.1,1.2-5.8,8.2-7
	s4.2-10.5,22.7-0.5c1.3,1.8,3.5,2.6,5.7,2.1c3.8-0.7,5.2,4.6,5.2,4.6s2.6-1.5,3.5,0.6s7.8-1.3,7.8,13.1s-7.8,27.3-7.8,27.3
	s0.6-24.2-12.1-26.7s-26.4-9.6-29.7-0.4C829.7,166,827.3,170.9,824.4,175.5z"/>
<ellipse class="st3" cx="873.6" cy="177.9" rx="2.5" ry="3.3"/>
<path class="st6" d="M859.4,625l3.9,11.7c0,0,0,11.7,3.9,17.6s7.8,18.6-7.8,19.6s-22.5-4.9-22.5-4.9s2.9-7.8,0-10.8s0-8.8,0-8.8
	l2.9-23.5L859.4,625z"/>
<path class="st6" d="M783.1,625l-3.9,11.7c0,0,0,11.7-3.9,17.6s-7.8,18.6,7.8,19.6s22.5-4.9,22.5-4.9s-2.9-7.8,0-10.8s0-8.8,0-8.8
	l-2.9-23.5L783.1,625z"/>
<rect x="157" y="151.2" class="st7" width="300" height="300"/>
<line class="st8" x1="253" y1="151.2" x2="253" y2="451.2"/>
<line class="st8" x1="354" y1="151.2" x2="354" y2="451.2"/>
<line class="st8" x1="157" y1="253.2" x2="457" y2="253.2"/>
<line class="st8" x1="157" y1="345.2" x2="457" y2="345.2"/>
<line class="st9" x1="157" y1="182.7" x2="457" y2="182.7"/>
<line class="st9" x1="457" y1="317.3" x2="157" y2="317.3"/>
<line class="st9" x1="157" y1="381.4" x2="457" y2="383.6"/>
<line class="st9" x1="157" y1="418" x2="457" y2="418"/>
<line class="st9" x1="157" y1="216.6" x2="457" y2="216.6"/>
<line class="st9" x1="157" y1="284.6" x2="457" y2="284.6"/>
<line class="st9" x1="189" y1="151.2" x2="189" y2="451.2"/>
<line class="st9" x1="221" y1="151.2" x2="221" y2="451.2"/>
<line class="st9" x1="287.5" y1="151.2" x2="287.5" y2="451.2"/>
<line class="st9" x1="319.5" y1="151.2" x2="319.5" y2="451.2"/>
<line class="st9" x1="389" y1="151.2" x2="389" y2="451.2"/>
<line class="st9" x1="422" y1="151.2" x2="422" y2="451.2"/>
</svg>
